<?xml version="1.0" standalone="no"?><!DOCTYPE svg PUBLIC "-//W3C//DTD SVG 1.1//EN" "http://www.w3.org/Graphics/SVG/1.1/DTD/svg11.dtd"><svg t="1589265223691" class="icon" viewBox="0 0 1024 1024" version="1.1" xmlns="http://www.w3.org/2000/svg" p-id="1400" width="32" height="32" xmlns:xlink="http://www.w3.org/1999/xlink"><defs><style type="text/css"></style></defs><path d="M512.77672297 426.17211259V194.19085431v231.98125828z m0-381.11206716c-160.78165333 0-298.26161778 137.47996445-298.26161779 298.26161777 0 84.53334914 111.0713837 223.69621333 187.19023407 343.05264198 44.79102419 72.88250469 87.76969482 135.92651852 111.07138372 187.19023407 23.17223506-51.39316939 66.2803595-114.30772939 111.0713837-187.19023407C700.09641086 567.01787653 811.03834075 427.85501235 811.03834075 343.3216632c0-160.78165333-137.60941827-298.26161778-298.26161778-298.26161777z m0 381.11206716c-64.59745975 0-115.99062914-51.39316939-115.99062914-115.99062912 0-64.59745975 51.39316939-115.99062914 115.99062914-115.99062916 64.59745975 0 115.99062914 51.39316939 115.99062913 115.99062916 0 64.59745975-51.39316939 115.99062914-115.99062913 115.99062912z m0 0" fill="#d81e06" p-id="1401"></path><path d="M651.93958717 790.71408987l-13.20429037 64.59745976c34.8230795 6.60214518 54.62951506 13.20429037 64.59745973 18.25298962-24.85513482 13.20429037-89.45259457 33.14017975-190.55603356 33.14017977s-165.70089876-19.93588939-190.55603358-33.14017977c9.96794469-4.91924543 29.77438025-11.65084445 64.59745975-18.25298962L373.48440494 790.71408987c-31.45728 6.60214518-125.95857383 24.85513482-125.95857383 82.85044938 0 77.93120395 167.38379852 99.42053925 265.12143803 99.42053927s265.12143803-21.48933531 265.12143803-99.42053927c0.12945383-59.67821431-94.37184-77.93120395-125.82912-82.85044938z m0 0" fill="#d81e06" p-id="1402"></path></svg>